# 3ds Max Wavefront OBJ Exporter v0.97b - (c)2007 guruware
# File Created: 02.08.2016 18:41:33

mtllib Highback Prison Chair.mtl

#
# object OBJ_Chair_Plain_PrisonHighBack
#

v  23.7146 48.0000 22.9602
v  19.7146 48.0000 22.9602
v  21.0398 0.0000 22.9602
v  25.0398 0.0000 22.9602
v  19.8599 42.7062 -21.0398
v  23.7146 42.7062 -21.0398
v  23.7146 42.7062 18.9602
v  19.8599 42.7062 18.9602
v  -15.9068 42.7062 -21.0398
v  -15.9068 42.7062 -25.0398
v  19.8599 42.7062 -25.0398
v  19.8599 42.7062 22.9602
v  -15.9068 42.7062 22.9602
v  -15.9068 42.7062 18.9602
v  -19.9068 42.7062 -21.0398
v  -19.9068 42.7062 18.9602
v  -19.9068 47.1577 -21.0398
v  -19.9068 47.1577 18.9602
v  19.7355 47.1577 -24.4601
v  -15.9068 47.1577 -24.4600
v  23.2830 47.1577 18.9602
v  23.2830 47.1577 -21.0398
v  21.0398 0.0000 18.9602
v  19.7146 48.0000 18.9602
v  25.0398 0.0000 18.9602
v  23.7146 48.0000 18.9602
v  -23.8798 111.7125 -25.0398
v  -23.8798 111.7125 -21.0398
v  -23.0619 113.0515 -21.0398
v  -23.0619 113.0515 -25.0398
v  -19.8798 111.7125 -21.0398
v  -19.8798 111.7125 -25.0398
v  -20.6977 113.0515 -25.0398
v  -20.6977 113.0515 -21.0398
v  -17.8922 0.0000 -25.0398
v  -21.8922 0.0000 -25.0398
v  -19.9068 48.0000 -25.0398
v  -15.9068 48.0000 -25.0398
v  -17.8922 0.0000 -21.0398
v  -15.9068 48.0000 -21.0398
v  -21.8922 0.0000 -21.0398
v  21.0398 0.0000 -21.0398
v  25.0398 0.0000 -21.0398
v  23.7146 48.0000 -21.0398
v  19.7146 48.0000 -21.0398
v  21.0398 0.0000 -25.0398
v  19.7146 48.0000 -25.0398
v  25.0398 0.0000 -25.0398
v  23.7146 48.0000 -25.0398
v  -17.2911 13.9063 -22.2086
v  20.6474 13.9063 -22.2086
v  20.5297 18.1887 -22.2086
v  -17.1259 18.1887 -22.2086
v  20.6474 13.9063 -23.9308
v  -17.2911 13.9063 -23.9308
v  -17.1259 18.1887 -23.9308
v  20.5297 18.1887 -23.9308
v  -16.6861 29.0342 -22.2086
v  20.2178 29.0342 -22.2086
v  20.1006 33.3166 -22.2086
v  -16.4973 33.3166 -22.2086
v  20.2178 29.0342 -23.9308
v  -16.6861 29.0342 -23.9308
v  -16.4973 33.3166 -23.9308
v  20.1006 33.3166 -23.9308
v  -17.2911 13.9063 21.8475
v  20.6474 13.9063 21.8475
v  20.5297 18.1887 21.8475
v  -17.1259 18.1887 21.8475
v  20.6474 13.9063 20.1253
v  -17.2911 13.9063 20.1253
v  -17.1259 18.1887 20.1253
v  20.5297 18.1887 20.1253
v  -16.6861 29.0342 21.8475
v  20.2178 29.0342 21.8475
v  20.1006 33.3166 21.8475
v  -16.4973 33.3166 21.8475
v  20.2178 29.0342 20.1253
v  -16.6861 29.0342 20.1253
v  -16.4973 33.3166 20.1253
v  20.1006 33.3166 20.1253
v  -21.6053 66.5629 -7.8058
v  -20.1053 66.5629 -7.8058
v  -22.4038 94.5977 -7.8058
v  -23.9038 94.5977 -7.8058
v  -21.0599 66.5629 -11.8058
v  -23.3584 94.5977 -11.8058
v  -19.5599 66.5629 -11.8058
v  -21.8584 94.5977 -11.8058
v  -21.6053 66.5629 -2.0628
v  -20.1053 66.5629 -2.0628
v  -22.4038 94.5977 -2.0628
v  -23.9038 94.5977 -2.0628
v  -21.6053 66.5629 -6.0628
v  -23.9038 94.5977 -6.0628
v  -20.1053 66.5629 -6.0628
v  -22.4038 94.5977 -6.0628
v  -21.6053 66.5629 3.8748
v  -20.1053 66.5629 3.8748
v  -22.4038 94.5977 3.8748
v  -23.9038 94.5977 3.8748
v  -21.6053 66.5629 -0.1252
v  -23.9038 94.5977 -0.1252
v  -20.1053 66.5629 -0.1252
v  -22.4038 94.5977 -0.1252
v  -21.0599 66.5629 9.7152
v  -19.5599 66.5629 9.7151
v  -21.8584 94.5977 9.7152
v  -23.3584 94.5977 9.7152
v  -21.6053 66.5629 5.7152
v  -23.9038 94.5977 5.7152
v  -20.1053 66.5629 5.7152
v  -22.4038 94.5977 5.7152
v  -23.8798 111.7125 18.9602
v  -23.8798 111.7125 22.9602
v  -23.0619 113.0515 22.9602
v  -23.0619 113.0515 18.9602
v  -19.8798 111.7125 22.9602
v  -19.8798 111.7125 18.9602
v  -20.6977 113.0515 18.9602
v  -20.6977 113.0515 22.9602
v  20.6663 28.4327 -21.0398
v  20.6663 18.7924 -21.0398
v  20.6663 18.7924 18.8639
v  20.6663 28.4327 18.8639
v  23.9184 28.4327 18.8639
v  23.9184 18.7924 18.8639
v  23.9184 18.7924 -21.0398
v  23.9184 28.4327 -21.0398
v  -20.1591 28.4327 -21.0398
v  -20.5488 18.7924 -21.0398
v  -20.5488 18.7924 18.8639
v  -20.1591 28.4327 18.8639
v  -16.9069 28.4327 18.8639
v  -17.2966 18.7924 18.8639
v  -17.2966 18.7924 -21.0398
v  -16.9069 28.4327 -21.0398
v  -18.9563 94.5977 -21.0398
v  -19.7822 107.4748 -21.0398
v  -22.2143 107.4748 -7.7385
v  -21.3884 94.5977 -7.7385
v  -22.2143 107.4748 5.5627
v  -21.3884 94.5977 5.5627
v  -19.7822 107.4748 18.8639
v  -18.9563 94.5977 18.8639
v  -22.6461 94.5977 -21.0398
v  -25.0782 94.5977 -7.7385
v  -25.0782 94.5977 5.5627
v  -22.6461 94.5977 18.8639
v  -23.4492 107.4748 -21.0398
v  -25.8813 107.4748 -7.7385
v  -25.8813 107.4748 5.5627
v  -23.4492 107.4748 18.8639
v  -15.9068 47.1577 22.5511
v  19.7355 47.1577 22.5511
v  -15.9068 48.0000 18.9602
v  -21.8922 0.0000 22.9602
v  -17.8922 0.0000 22.9602
v  -15.9068 48.0000 22.9602
v  -19.9068 48.0000 22.9602
v  -21.8922 0.0000 18.9602
v  -19.9068 48.0000 18.9602
v  -17.8922 0.0000 18.9602
v  -19.9068 48.0000 -21.0398
v  -20.1571 56.9226 18.8639
v  -20.6847 66.5629 18.8639
v  -22.4468 66.5629 5.5627
v  -21.9192 56.9226 5.5627
v  -22.4468 66.5629 -7.7385
v  -21.9192 56.9226 -7.7385
v  -20.6847 66.5629 -21.0398
v  -20.1571 56.9226 -21.0398
v  -16.9050 56.9226 -21.0398
v  -17.4325 66.5629 -21.0398
v  -19.1947 66.5629 -7.7385
v  -18.6671 56.9226 -7.7385
v  -19.1947 66.5629 5.5627
v  -18.6671 56.9226 5.5627
v  -17.4325 66.5629 18.8639
v  -16.9050 56.9226 18.8639
# 180 vertices

vn 0.0000 0.0000 1.0000
vn 0.0000 -1.0000 -0.0000
vn -0.7765 0.6301 -0.0000
vn -1.0000 0.0000 -0.0000
vn -0.0000 0.4840 -0.8751
vn 0.0000 0.1291 -0.9916
vn -0.0000 0.1291 -0.9916
vn -0.0000 0.6664 -0.7456
vn 0.7532 0.6577 -0.0000
vn 0.9953 0.0965 -0.0000
vn -0.9996 -0.0276 -0.0000
vn 0.0000 0.0000 -1.0000
vn 0.9996 0.0276 -0.0000
vn 0.0000 1.0000 -0.0000
vn -0.9706 0.2406 -0.0000
vn -0.8534 0.5213 -0.0000
vn 0.9258 0.3781 -0.0000
vn 0.9538 0.3006 -0.0000
vn 0.8534 0.5213 -0.0000
vn 0.9991 -0.0413 -0.0000
vn 0.9999 0.0105 -0.0000
vn -0.9876 -0.0810 -0.1347
vn 0.9876 0.0810 0.1347
vn -0.9967 -0.0817 -0.0000
vn 0.9967 0.0817 -0.0000
vn 0.0001 0.0000 1.0000
vn -0.9876 -0.0810 0.1347
vn 0.9876 0.0810 -0.1347
vn 1.0000 0.0000 -0.0000
vn -0.9992 0.0404 -0.0000
vn 0.9992 -0.0404 -0.0000
vn 0.9817 0.0630 0.1795
vn 0.9939 0.0637 0.0898
vn 0.9939 0.0637 0.0904
vn 0.9939 0.0637 -0.0898
vn 0.9939 0.0637 -0.0905
vn 0.9817 0.0630 -0.1795
vn 0.0000 0.6564 0.7544
vn 0.0000 0.0915 0.9958
vn -0.0694 0.9946 0.0769
vn -0.0695 0.9943 -0.0806
vn 0.0774 0.9940 0.0772
vn 0.0774 0.9937 -0.0809
vn -0.9991 0.0413 -0.0000
vn -0.9999 -0.0105 -0.0000
vn -0.9899 -0.0542 0.1311
vn -0.9964 -0.0545 0.0656
vn -0.9963 -0.0545 0.0659
vn -0.9964 -0.0545 -0.0656
vn -0.9963 -0.0545 -0.0659
vn -0.9899 -0.0542 -0.1311
vn 0.9899 0.0542 0.1311
vn 0.9964 0.0545 0.0656
vn 0.9963 0.0545 0.0659
vn 0.9964 0.0545 -0.0656
vn 0.9963 0.0545 -0.0659
vn 0.9899 0.0542 -0.1311
vn -0.9818 -0.0612 -0.1795
vn -0.9940 -0.0620 -0.0905
vn -0.9940 -0.0620 -0.0898
vn -0.9940 -0.0620 0.0905
vn -0.9940 -0.0620 0.0898
vn -0.9818 -0.0612 0.1795
# 63 vertex normals

vt 0.0652 0.4995 0.4995
vt 0.0024 0.4995 0.4995
vt 0.0024 0.0039 0.0039
vt 0.0652 0.0039 0.0039
vt 0.9521 0.0718 0.0718
vt 0.9521 0.0322 0.0322
vt 0.5522 0.0322 0.0322
vt 0.5522 0.0718 0.0718
vt 0.9521 0.4380 0.4380
vt 0.9922 0.4380 0.4380
vt 0.9922 0.0718 0.0718
vt 0.5122 0.0718 0.0718
vt 0.5122 0.4380 0.4380
vt 0.5522 0.4380 0.4380
vt 0.9521 0.4790 0.4790
vt 0.5522 0.4790 0.4790
vt 0.9277 0.9538 0.9538
vt 0.9272 0.9951 0.9951
vt 0.5811 0.9951 0.9951
vt 0.5801 0.9541 0.9541
vt 0.9585 0.5833 0.5833
vt 0.9976 0.5823 0.5823
vt 0.9961 0.9146 0.9146
vt 0.9580 0.9143 0.9143
vt 0.5791 0.5486 0.5486
vt 0.5801 0.5051 0.5051
vt 0.9268 0.5068 0.5068
vt 0.9272 0.5474 0.5474
vt 0.0677 0.0039 0.0039
vt 0.1305 0.0039 0.0039
vt 0.1305 0.4995 0.4995
vt 0.0677 0.4995 0.4995
vt 0.0672 0.0039 0.0039
vt 0.1299 0.0039 0.0039
vt 0.1299 0.4995 0.4995
vt 0.0672 0.4995 0.4995
vt 0.1792 0.0620 0.0620
vt 0.1792 0.0083 0.0083
vt 0.2328 0.0083 0.0083
vt 0.2328 0.0620 0.0620
vt 0.2338 0.0078 0.0078
vt 0.2338 0.0625 0.0625
vt 0.1798 0.0625 0.0625
vt 0.1798 0.0078 0.0078
vt 0.2330 0.0596 0.0596
vt 0.1797 0.0596 0.0596
vt 0.1797 0.0449 0.0449
vt 0.2330 0.0449 0.0449
vt 0.1797 0.0103 0.0103
vt 0.2330 0.0103 0.0103
vt 0.2330 0.0234 0.0234
vt 0.1797 0.0234 0.0234
vt 0.2507 0.0029 0.0029
vt 0.3130 0.0029 0.0029
vt 0.3130 0.4878 0.4878
vt 0.2507 0.4878 0.4878
vt 0.3140 0.9720 0.9720
vt 0.2507 0.9720 0.9720
vt 0.2983 0.9962 0.9962
vt 0.2683 0.9959 0.9959
vt 0.3162 0.0044 0.0044
vt 0.3745 0.0044 0.0044
vt 0.3745 0.5012 0.5012
vt 0.3162 0.5012 0.5012
vt 0.3745 0.9981 0.9981
vt 0.3162 0.9981 0.9981
vt 0.2339 0.0068 0.0068
vt 0.2339 0.0610 0.0610
vt 0.1809 0.0610 0.0610
vt 0.1809 0.0068 0.0068
vt 0.0649 0.0249 0.0249
vt 0.0649 0.4956 0.4956
vt 0.0038 0.4941 0.4941
vt 0.0038 0.0269 0.0269
vt 0.0652 0.0249 0.0249
vt 0.0652 0.4956 0.4956
vt 0.0040 0.4937 0.4937
vt 0.0040 0.0264 0.0264
vt 0.0669 0.0376 0.0376
vt 0.0669 0.4956 0.4956
vt 0.0056 0.4941 0.4941
vt 0.0056 0.0400 0.0400
vt 0.1287 0.0376 0.0376
vt 0.1287 0.4956 0.4956
vt 0.0674 0.4937 0.4937
vt 0.0674 0.0391 0.0391
vt 0.1271 0.0249 0.0249
vt 0.1271 0.4956 0.4956
vt 0.0658 0.4941 0.4941
vt 0.0658 0.0269 0.0269
vt 0.1267 0.0249 0.0249
vt 0.1267 0.4956 0.4956
vt 0.0656 0.4937 0.4937
vt 0.0656 0.0264 0.0264
vt 0.1288 0.0376 0.0376
vt 0.1288 0.4956 0.4956
vt 0.0677 0.4941 0.4941
vt 0.0677 0.0400 0.0400
vt 0.0671 0.0376 0.0376
vt 0.0671 0.4956 0.4956
vt 0.0059 0.4937 0.4937
vt 0.0059 0.0391 0.0391
vt 0.1616 0.0073 0.0073
vt 0.1616 0.4946 0.4946
vt 0.1338 0.4946 0.4946
vt 0.1338 0.0073 0.0073
vt 0.1619 0.4946 0.4946
vt 0.1339 0.4946 0.4946
vt 0.1339 0.0107 0.0107
vt 0.1619 0.0107 0.0107
vt 0.1604 0.0205 0.0205
vt 0.1604 0.4946 0.4946
vt 0.1326 0.4946 0.4946
vt 0.1326 0.0205 0.0205
vt 0.1621 0.4946 0.4946
vt 0.1343 0.4946 0.4946
vt 0.1343 0.0244 0.0244
vt 0.1621 0.0244 0.0244
vt 0.1603 0.0073 0.0073
vt 0.1603 0.4946 0.4946
vt 0.1323 0.4946 0.4946
vt 0.1323 0.0073 0.0073
vt 0.1324 0.4946 0.4946
vt 0.1324 0.0107 0.0107
vt 0.1603 0.0107 0.0107
vt 0.1589 0.0205 0.0205
vt 0.1589 0.4946 0.4946
vt 0.1311 0.4946 0.4946
vt 0.1311 0.0205 0.0205
vt 0.1606 0.4946 0.4946
vt 0.1328 0.4946 0.4946
vt 0.1328 0.0244 0.0244
vt 0.1606 0.0244 0.0244
vt 0.1342 0.4844 0.4844
vt 0.1588 0.4844 0.4844
vt 0.1588 0.0122 0.0122
vt 0.1342 0.0122 0.0122
vt 0.3162 0.1592 0.1592
vt 0.3748 0.1592 0.1592
vt 0.3748 0.6301 0.6301
vt 0.3162 0.6301 0.6301
vt 0.3162 0.3159 0.3159
vt 0.3748 0.3159 0.3159
vt 0.3748 0.7871 0.7871
vt 0.3162 0.7871 0.7871
vt 0.3162 0.0542 0.0542
vt 0.3748 0.0542 0.0542
vt 0.3748 0.5256 0.5256
vt 0.3162 0.5256 0.5256
vt 0.3162 0.5029 0.5029
vt 0.3748 0.5029 0.5029
vt 0.3748 0.9743 0.9743
vt 0.3162 0.9743 0.9743
vt 0.1271 0.9984 0.9984
vt 0.2515 0.9984 0.9984
vt 0.2515 0.5059 0.5059
vt 0.1271 0.5059 0.5059
vt 0.0017 0.9984 0.9984
vt 0.1276 0.9984 0.9984
vt 0.1276 0.5039 0.5039
vt 0.0017 0.5039 0.5039
vt 0.1306 0.4932 0.4932
vt 0.1565 0.4932 0.4932
vt 0.1565 0.0142 0.0142
vt 0.1306 0.0142 0.0142
vt 0.1278 0.5020 0.5020
vt 0.0020 0.5020 0.5020
vt 0.0020 0.6665 0.6665
vt 0.1278 0.6665 0.6665
vt 0.0020 0.8309 0.8309
vt 0.1278 0.8309 0.8309
vt 0.0020 0.9955 0.9955
vt 0.1278 0.9955 0.9955
vt 0.1272 0.0068 0.0068
vt 0.0652 0.0068 0.0068
vt 0.0652 0.1704 0.1704
vt 0.1272 0.1704 0.1704
vt 0.0652 0.3340 0.3340
vt 0.1272 0.3340 0.3340
vt 0.0652 0.4971 0.4971
vt 0.1272 0.4971 0.4971
vt 0.5464 0.9158 0.9158
vt 0.5054 0.9149 0.9149
vt 0.5063 0.5825 0.5825
vt 0.5449 0.5847 0.5847
vt 0.5806 0.9149 0.9149
vt 0.9282 0.9147 0.9147
vt 0.5796 0.5842 0.5842
vt 0.9272 0.5842 0.5842
vt 0.2515 0.0029 0.0029
vt 0.3145 0.0029 0.0029
vt 0.3145 0.4897 0.4897
vt 0.2515 0.4897 0.4897
vt 0.3154 0.9764 0.9764
vt 0.2477 0.9764 0.9764
vt 0.2981 0.9993 0.9993
vt 0.2620 0.9991 0.9991
vt 0.2507 0.5039 0.5039
vt 0.1304 0.5039 0.5039
vt 0.1304 0.6677 0.6677
vt 0.2507 0.6677 0.6677
vt 0.1304 0.8317 0.8317
vt 0.2507 0.8317 0.8317
vt 0.1304 0.9955 0.9955
vt 0.2507 0.9955 0.9955
# 205 texture coords

g OBJ_Chair_Plain_PrisonHighBack
usemtl OBJ_Chair_Plain_PrisonHighBack_Mat
s 1
f 1/1/1 2/2/1 3/3/1 
s 2
f 3/3/1 4/4/1 1/1/1 
s 3
f 5/5/2 6/6/2 7/7/2 
s 4
f 7/7/2 8/8/2 5/5/2 
s 5
f 9/9/2 5/5/2 8/8/2 
s 6
f 5/5/2 9/9/2 10/10/2 
s 7
f 10/10/2 11/11/2 5/5/2 
s 8
f 12/12/2 13/13/2 14/14/2 
s 9
f 14/14/2 8/8/2 12/12/2 
s 10
f 8/8/2 14/14/2 9/9/2 
s 11
f 15/15/2 9/9/2 14/14/2 
s 12
f 14/14/2 16/16/2 15/15/2 
s 13
f 17/17/3 15/18/4 16/19/4 
s 14
f 16/19/4 18/20/3 17/17/3 
s 15
f 19/21/5 11/22/6 10/23/7 
s 16
f 10/23/7 20/24/8 19/21/5 
s 17
f 21/25/9 7/26/10 6/27/10 
s 18
f 6/27/10 22/28/9 21/25/9 
s 19
f 23/29/11 3/30/11 2/31/11 
s 20
f 2/31/11 24/32/11 23/29/11 
s 21
f 25/3/12 23/4/12 24/1/12 
s 22
f 24/1/12 26/2/12 25/3/12 
s 23
f 4/33/13 25/34/13 26/35/13 
s 24
f 26/35/13 1/36/13 4/33/13 
s 25
f 1/37/14 26/38/14 24/39/14 
s 26
f 24/39/14 2/40/14 1/37/14 
s 27
f 4/41/2 3/42/2 23/43/2 
s 28
f 23/43/2 25/44/2 4/41/2 
s 29
f 27/45/15 28/46/15 29/47/16 
s 30
f 29/47/16 30/48/16 27/45/15 
s 31
f 31/49/17 32/50/18 33/51/19 
s 32
f 33/51/19 34/52/19 31/49/17 
s 33
f 35/53/12 36/54/12 37/55/12 
s 34
f 37/55/12 38/56/12 35/53/12 
s 35
f 38/56/12 37/55/12 27/57/12 
s 36
f 27/57/12 32/58/12 38/56/12 
s 37
f 32/58/12 27/57/12 30/59/12 
s 38
f 30/59/12 33/60/12 32/58/12 
s 39
f 39/61/20 35/62/20 38/63/21 
s 40
f 38/63/21 40/64/21 39/61/20 
s 41
f 40/64/21 38/63/21 32/65/18 
s 42
f 32/65/18 31/66/17 40/64/21 
s 43
f 34/52/14 33/51/14 30/48/14 
s 44
f 30/48/14 29/47/14 34/52/14 
s 45
f 39/67/2 41/68/2 36/69/2 
s 46
f 36/69/2 35/70/2 39/67/2 
s 47
f 42/3/1 43/4/1 44/1/1 
s 48
f 44/1/1 45/2/1 42/3/1 
s 49
f 46/29/11 42/30/11 45/31/11 
s 50
f 45/31/11 47/32/11 46/29/11 
s 51
f 48/3/12 46/4/12 47/1/12 
s 52
f 47/1/12 49/2/12 48/3/12 
s 53
f 43/33/13 48/34/13 49/35/13 
s 54
f 49/35/13 44/36/13 43/33/13 
s 55
f 44/37/14 49/38/14 47/39/14 
s 56
f 47/39/14 45/40/14 44/37/14 
s 57
f 43/41/2 42/42/2 46/43/2 
s 58
f 46/43/2 48/44/2 43/41/2 
s 59
f 50/71/1 51/72/1 52/73/1 
s 60
f 52/73/1 53/74/1 50/71/1 
s 61
f 54/75/12 55/76/12 56/77/12 
s 62
f 56/77/12 57/78/12 54/75/12 
s 63
f 58/79/1 59/80/1 60/81/1 
s 64
f 60/81/1 61/82/1 58/79/1 
s 65
f 62/83/12 63/84/12 64/85/12 
s 66
f 64/85/12 65/86/12 62/83/12 
s 67
f 66/87/1 67/88/1 68/89/1 
s 68
f 68/89/1 69/90/1 66/87/1 
s 69
f 70/91/12 71/92/12 72/93/12 
s 70
f 72/93/12 73/94/12 70/91/12 
s 71
f 74/95/1 75/96/1 76/97/1 
s 72
f 76/97/1 77/98/1 74/95/1 
s 73
f 78/99/12 79/100/12 80/101/12 
s 74
f 80/101/12 81/102/12 78/99/12 
s 75
f 51/103/2 50/104/2 55/105/2 
s 76
f 55/105/2 54/106/2 51/103/2 
s 77
f 52/107/14 57/108/14 56/109/14 
s 78
f 56/109/14 53/110/14 52/107/14 
s 79
f 59/111/2 58/112/2 63/113/2 
s 80
f 63/113/2 62/114/2 59/111/2 
s 81
f 60/115/14 65/116/14 64/117/14 
s 82
f 64/117/14 61/118/14 60/115/14 
s 83
f 67/119/2 66/120/2 71/121/2 
s 84
f 71/121/2 70/122/2 67/119/2 
s 85
f 68/120/14 73/123/14 72/124/14 
s 86
f 72/124/14 69/125/14 68/120/14 
s 87
f 75/126/2 74/127/2 79/128/2 
s 88
f 79/128/2 78/129/2 75/126/2 
s 89
f 76/130/14 81/131/14 80/132/14 
s 90
f 80/132/14 77/133/14 76/130/14 
s 91
f 82/134/1 83/135/1 84/136/1 
s 92
f 84/136/1 85/137/1 82/134/1 
s 93
f 86/138/22 82/139/22 85/140/22 
s 94
f 85/140/22 87/141/22 86/138/22 
s 95
f 88/134/12 86/135/12 87/136/12 
s 96
f 87/136/12 89/137/12 88/134/12 
s 97
f 83/138/23 88/139/23 89/140/23 
s 98
f 89/140/23 84/141/23 83/138/23 
s 99
f 90/137/1 91/136/1 92/135/1 
s 100
f 92/135/1 93/134/1 90/137/1 
s 101
f 94/142/24 90/143/24 93/144/24 
s 102
f 93/144/24 95/145/24 94/142/24 
s 103
f 96/136/12 94/137/12 95/134/12 
s 104
f 95/134/12 97/135/12 96/136/12 
s 105
f 91/142/25 96/143/25 97/144/25 
s 106
f 97/144/25 92/145/25 91/142/25 
s 107
f 98/135/1 99/134/1 100/137/1 
s 108
f 100/137/1 101/136/1 98/135/1 
s 109
f 102/146/24 98/147/24 101/148/24 
s 110
f 101/148/24 103/149/24 102/146/24 
s 111
f 104/135/12 102/134/12 103/137/12 
s 112
f 103/137/12 105/136/12 104/135/12 
s 113
f 99/146/25 104/147/25 105/148/25 
s 114
f 105/148/25 100/149/25 99/146/25 
s 115
f 106/137/26 107/136/26 108/135/1 
s 116
f 108/135/1 109/134/1 106/137/26 
s 117
f 110/150/27 106/151/27 109/152/27 
s 118
f 109/152/27 111/153/27 110/150/27 
s 119
f 112/137/12 110/136/12 111/135/12 
s 120
f 111/135/12 113/134/12 112/137/12 
s 121
f 107/150/28 112/151/28 113/152/28 
s 122
f 113/152/28 108/153/28 107/150/28 
s 123
f 114/45/15 115/46/15 116/47/16 
s 124
f 116/47/16 117/48/16 114/45/15 
s 125
f 118/49/18 119/50/18 120/51/19 
s 126
f 120/51/19 121/52/19 118/49/18 
s 127
f 122/154/4 123/155/4 124/156/4 
s 128
f 124/156/4 125/157/4 122/154/4 
s 129
f 126/158/29 127/159/29 128/160/29 
s 130
f 128/160/29 129/161/29 126/158/29 
s 131
f 127/162/2 124/163/2 123/164/2 
s 132
f 123/164/2 128/165/2 127/162/2 
s 133
f 126/165/14 129/162/14 122/163/14 
s 134
f 122/163/14 125/164/14 126/165/14 
s 135
f 130/158/30 131/159/30 132/160/30 
s 136
f 132/160/30 133/161/30 130/158/30 
s 137
f 134/154/31 135/155/31 136/156/31 
s 138
f 136/156/31 137/157/31 134/154/31 
s 139
f 135/162/2 132/163/2 131/164/2 
s 140
f 131/164/2 136/165/2 135/162/2 
s 141
f 134/165/14 137/162/14 130/163/14 
s 142
f 130/163/14 133/164/14 134/165/14 
s 143
f 138/166/32 139/167/32 140/168/33 
s 144
f 140/168/33 141/169/34 138/166/32 
s 145
f 141/169/34 140/168/33 142/170/35 
s 146
f 142/170/35 143/171/36 141/169/34 
s 147
f 143/171/36 142/170/35 144/172/37 
s 148
f 144/172/37 145/173/37 143/171/36 
s 149
f 146/174/2 138/175/2 141/176/2 
s 150
f 141/176/2 147/177/2 146/174/2 
s 151
f 147/177/2 141/176/2 143/178/2 
s 152
f 143/178/2 148/179/2 147/177/2 
s 153
f 148/179/2 143/178/2 145/180/2 
s 154
f 145/180/2 149/181/2 148/179/2 
s 155
f 139/180/14 150/181/14 151/179/14 
s 156
f 151/179/14 140/178/14 139/180/14 
s 157
f 140/178/14 151/179/14 152/177/14 
s 158
f 152/177/14 142/176/14 140/178/14 
s 159
f 142/176/14 152/177/14 153/174/14 
s 160
f 153/174/14 144/175/14 142/176/14 
s 161
f 154/182/38 13/183/39 12/184/39 
s 162
f 12/184/39 155/185/38 154/182/38 
s 163
f 156/186/40 40/187/41 17/17/3 
s 164
f 17/17/3 18/20/3 156/186/40 
s 165
f 156/186/40 154/182/38 155/185/38 
s 166
f 155/185/38 24/188/42 156/186/40 
s 167
f 40/187/41 156/186/40 24/188/42 
s 168
f 24/188/42 45/189/43 40/187/41 
s 169
f 20/24/8 40/187/41 45/189/43 
s 170
f 45/189/43 19/21/5 20/24/8 
s 171
f 21/25/9 22/28/9 45/189/43 
s 172
f 45/189/43 24/188/42 21/25/9 
s 173
f 157/190/1 158/191/1 159/192/1 
s 174
f 159/192/1 160/193/1 157/190/1 
s 175
f 160/193/1 159/192/1 118/194/1 
s 176
f 118/194/1 115/195/1 160/193/1 
s 177
f 115/195/1 118/194/1 121/196/1 
s 178
f 121/196/1 116/197/1 115/195/1 
s 179
f 161/61/44 157/62/44 160/63/45 
s 180
f 160/63/45 162/64/45 161/61/44 
s 181
f 162/64/45 160/63/45 115/65/15 
s 182
f 115/65/15 114/66/15 162/64/45 
s 183
f 158/61/20 163/62/20 156/63/21 
s 184
f 156/63/21 159/64/21 158/61/20 
s 185
f 159/64/21 156/63/21 119/65/18 
s 186
f 119/65/18 118/66/18 159/64/21 
s 187
f 121/52/14 120/51/14 117/48/14 
s 188
f 117/48/14 116/47/14 121/52/14 
s 189
f 158/67/2 157/68/2 161/69/2 
s 190
f 161/69/2 163/70/2 158/67/2 
s 191
f 41/190/1 39/191/1 40/192/1 
s 192
f 40/192/1 164/193/1 41/190/1 
s 193
f 164/193/1 40/192/1 31/194/1 
s 194
f 31/194/1 28/195/1 164/193/1 
s 195
f 28/195/1 31/194/1 34/196/1 
s 196
f 34/196/1 29/197/1 28/195/1 
s 197
f 28/65/15 27/66/15 37/64/45 
s 198
f 37/64/45 164/63/45 28/65/15 
s 199
f 164/63/45 37/64/45 36/61/44 
s 200
f 36/61/44 41/62/44 164/63/45 
s 201
f 165/198/46 166/199/46 167/200/47 
s 202
f 167/200/47 168/201/48 165/198/46 
s 203
f 168/201/48 167/200/47 169/202/49 
s 204
f 169/202/49 170/203/50 168/201/48 
s 205
f 170/203/50 169/202/49 171/204/51 
s 206
f 171/204/51 172/205/51 170/203/50 
s 207
f 173/198/52 174/199/52 175/200/53 
s 208
f 175/200/53 176/201/54 173/198/52 
s 209
f 176/201/54 175/200/53 177/202/55 
s 210
f 177/202/55 178/203/56 176/201/54 
s 211
f 178/203/56 177/202/55 179/204/57 
s 212
f 179/204/57 180/205/57 178/203/56 
s 213
f 172/174/2 173/175/2 176/176/2 
s 214
f 176/176/2 170/177/2 172/174/2 
s 215
f 170/177/2 176/176/2 178/178/2 
s 216
f 178/178/2 168/179/2 170/177/2 
s 217
f 168/179/2 178/178/2 180/180/2 
s 218
f 180/180/2 165/181/2 168/179/2 
s 219
f 174/180/14 171/181/14 169/179/14 
s 220
f 169/179/14 175/178/14 174/180/14 
s 221
f 175/178/14 169/179/14 167/177/14 
s 222
f 167/177/14 177/176/14 175/178/14 
s 223
f 177/176/14 167/177/14 166/174/14 
s 224
f 166/174/14 179/175/14 177/176/14 
s 225
f 150/172/58 146/173/58 147/171/59 
s 226
f 147/171/59 151/170/60 150/172/58 
s 227
f 151/170/60 147/171/59 148/169/61 
s 228
f 148/169/61 152/168/62 151/170/60 
s 229
f 152/168/62 148/169/61 149/166/63 
s 230
f 149/166/63 153/167/63 152/168/62 
s 231
f 117/59/12 120/60/12 119/58/12 
s 232
f 119/58/12 114/57/12 117/59/12 
s 233
f 114/57/12 119/58/12 156/56/12 
s 234
f 156/56/12 162/55/12 114/57/12 
s 235
f 162/55/12 156/56/12 163/53/12 
s 236
f 163/53/12 161/54/12 162/55/12 
# 236 faces

