# 3ds Max Wavefront OBJ Exporter v0.97b - (c)2007 guruware
# File Created: 23.02.2017 21:22:51

mtllib Whiskey_Bottle.mtl

#
# object Whiskey_Bottle
#

v  2.8666 61.1530 -2.3359
v  0.3485 61.1530 -3.6293
v  -2.3447 61.1530 -2.7638
v  0.0491 61.7320 0.0558
v  -2.7680 61.1530 2.4482
v  2.4433 61.1530 2.8761
v  3.7342 61.1530 0.3586
v  -0.2499 61.1530 3.7416
v  -3.6360 61.1530 -0.2463
v  1.7127 50.9714 2.0194
v  -0.3964 59.1426 4.8436
v  3.1437 59.1426 3.7046
v  2.2452 59.7178 2.5639
v  -0.2371 59.7178 3.3625
v  -3.7049 59.1426 3.1452
v  -2.5578 59.7178 2.1714
v  -4.8436 59.1426 -0.3946
v  -3.3564 59.7178 -0.3113
v  -3.1455 59.1426 -3.7031
v  -2.1653 59.7178 -2.6316
v  0.3943 59.1426 -4.8418
v  0.3171 59.7178 -3.4303
v  3.7031 59.1426 -3.1437
v  2.6377 59.7178 -2.2394
v  4.8418 59.1426 0.3961
v  3.4364 59.7178 0.2432
v  -0.4093 38.3536 5.0133
v  3.2554 38.3536 3.8343
v  1.5540 33.2864 8.5250
v  -3.8343 38.3536 3.2554
v  -6.6060 33.2864 5.6084
v  -5.0133 38.3536 -0.4093
v  -8.5250 33.2864 1.5540
v  -3.2554 38.3536 -3.8343
v  -5.6084 33.2864 -6.6060
v  0.4093 38.3536 -5.0133
v  -1.5540 33.2864 -8.5250
v  3.1220 31.8616 -8.7347
v  3.1797 1.2959 -8.8961
v  -1.6941 1.2959 -9.2941
v  -1.6633 31.8616 -9.1256
v  2.9167 33.2864 -8.1600
v  -6.0033 31.8616 -7.0711
v  -6.1144 1.2959 -7.2018
v  2.6121 50.9714 0.2670
v  -0.1621 50.9714 2.6225
v  6.0033 31.8616 7.0711
v  6.1144 1.2959 7.2018
v  8.8961 1.2959 3.1797
v  8.7347 31.8616 3.1220
v  8.1600 33.2864 2.9167
v  5.6084 33.2864 6.6060
v  5.0133 38.3536 0.4093
v  0.0000 44.4208 -0.0000
v  -8.1600 33.2864 -2.9167
v  -8.7347 31.8616 -3.1220
v  -8.8961 1.2959 -3.1797
v  -9.1256 31.8616 1.6633
v  -9.2941 1.2959 1.6941
v  -7.0711 31.8616 6.0033
v  -7.2018 1.2959 6.1144
v  -2.9167 33.2864 8.1600
v  -3.1220 31.8616 8.7347
v  -3.1797 1.2959 8.8961
v  1.6633 31.8616 9.1256
v  1.6941 1.2959 9.2941
v  3.8343 38.3536 -3.2554
v  8.5250 33.2864 -1.5540
v  6.6060 33.2864 -5.6084
v  2.0090 50.9714 -1.6077
v  0.2567 50.9714 -2.5071
v  -1.6178 50.9714 -1.9037
v  -2.5172 50.9714 -0.1517
v  -1.9141 50.9714 1.7231
v  0.0473 50.9714 0.0577
v  9.1256 31.8616 -1.6633
v  9.2941 1.2959 -1.6941
v  7.0711 31.8616 -6.0033
v  7.2018 1.2959 -6.1144
v  -0.6507 0.0007 7.9678
v  5.1738 0.0007 6.0942
v  7.9678 0.0007 0.6507
v  6.0942 0.0007 -5.1738
v  0.0000 1.6989 -0.0000
v  -5.1738 0.0007 -6.0942
v  0.6507 0.0007 -7.9678
v  -7.9678 0.0007 -0.6507
v  -6.0942 0.0007 5.1738
# 88 vertices

vn 0.0588 0.9970 -0.0499
vn 0.0000 1.0000 -0.0000
vn -0.1092 0.9940 -0.0089
vn 0.0177 0.9763 -0.2155
vn -0.0000 1.0000 -0.0000
vn -0.0786 0.9947 0.0667
vn 0.0502 0.9970 0.0591
vn 0.9867 -0.1099 0.1202
vn 0.5337 -0.1088 0.8387
vn 0.7410 -0.1089 0.6626
vn -0.0280 0.9328 0.3593
vn 0.2400 0.9296 0.2797
vn -0.2722 0.9341 0.2311
vn -0.3591 0.9328 -0.0307
vn -0.2370 0.9296 -0.2822
vn 0.0321 0.9262 -0.3757
vn 0.2902 0.9247 -0.2464
vn 0.3759 0.9262 0.0292
vn 0.6472 0.0082 0.7623
vn -0.0814 0.0082 0.9966
vn -0.1797 0.4549 0.8722
vn 0.5294 0.4105 0.7425
vn 0.1875 0.5205 0.8330
vn -0.7623 0.0082 0.6472
vn -0.7810 0.4075 0.4732
vn -0.5775 0.5143 0.6341
vn -0.9966 0.0082 -0.0814
vn -0.8928 0.4412 -0.0909
vn -0.8620 0.4921 0.1219
vn -0.6472 0.0082 -0.7623
vn -0.5294 0.4105 -0.7425
vn -0.6341 0.5143 -0.5775
vn 0.0814 0.0083 -0.9966
vn 0.1797 0.4550 -0.8722
vn -0.1875 0.5205 -0.8330
vn 0.3300 0.1975 -0.9231
vn 0.3366 0.0056 -0.9416
vn -0.1793 0.0056 -0.9838
vn -0.1758 0.1975 -0.9644
vn 0.2895 0.4928 -0.8206
vn -0.6345 0.1974 -0.7473
vn -0.6472 0.0056 -0.7623
vn 0.9936 -0.1097 0.0281
vn 0.7828 -0.1098 -0.6125
vn -0.0811 -0.1096 0.9907
vn 0.6345 0.1974 0.7473
vn 0.6472 0.0056 0.7623
vn 0.9416 0.0056 0.3366
vn 0.9231 0.1975 0.3300
vn 0.8206 0.4928 0.2895
vn 0.6341 0.5143 0.5775
vn 0.8722 0.4550 0.1797
vn 0.0795 0.2152 -0.9733
vn -0.6317 0.2174 -0.7441
vn 0.0013 1.0000 -0.0010
vn -0.8432 0.4919 -0.2171
vn -0.9231 0.1975 -0.3300
vn -0.9416 0.0056 -0.3366
vn -0.9644 0.1975 0.1758
vn -0.9838 0.0056 0.1793
vn -0.7473 0.1974 0.6345
vn -0.7623 0.0056 0.6472
vn -0.2895 0.4928 0.8206
vn -0.3300 0.1975 0.9231
vn -0.3366 0.0056 0.9416
vn 0.1758 0.1975 0.9644
vn 0.1793 0.0056 0.9838
vn 0.9966 0.0083 0.0814
vn 0.7446 0.2142 -0.6322
vn 0.7425 0.4105 -0.5294
vn 0.8330 0.5205 -0.1875
vn 0.7623 0.0083 -0.6472
vn 0.9733 0.2152 0.0794
vn 0.5775 0.5143 -0.6341
vn 0.6311 0.2174 0.7446
vn -0.0799 0.2197 0.9723
vn -0.7435 0.2206 0.6313
vn 0.7224 -0.1097 -0.6827
vn 0.0280 -0.1098 -0.9936
vn 0.1208 -0.1098 -0.9866
vn -0.6124 -0.1098 -0.7829
vn -0.6827 -0.1097 -0.7224
vn -0.9867 -0.1096 -0.1202
vn -0.9936 -0.1094 -0.0281
vn -0.7577 -0.1094 0.6433
vn -0.7578 -0.1094 0.6433
vn 0.0000 -1.0000 -0.0000
vn -0.9723 0.2197 -0.0795
vn 0.9644 0.1975 -0.1758
vn 0.9838 0.0056 -0.1793
vn 0.7473 0.1974 -0.6345
vn 0.7623 0.0056 -0.6472
vn 0.3365 -0.7896 0.5130
vn 0.1573 -0.8310 0.5335
vn 0.0013 -0.9476 0.3194
vn -0.1717 -0.7516 0.6369
vn 0.6094 -0.7568 0.2366
vn 0.2792 -0.9339 0.2234
vn 0.3607 -0.9323 -0.0282
vn 0.2323 -0.9526 -0.1965
vn -0.0000 -1.0000 -0.0000
vn -0.2792 -0.9339 -0.2234
vn -0.0013 -0.9476 -0.3194
vn -0.3607 -0.9323 0.0282
vn -0.3365 -0.7896 -0.5130
vn 0.1717 -0.7516 -0.6369
vn -0.2323 -0.9526 0.1965
vn 0.5130 -0.7896 -0.3365
vn -0.5130 -0.7896 0.3365
vn 0.6206 -0.7801 -0.0799
vn -0.6206 -0.7801 0.0799
vn -0.6094 -0.7568 -0.2366
vn -0.1573 -0.8310 -0.5335
# 113 vertex normals

vt 0.9150 0.8641 0.8641
vt 0.8618 0.8423 0.8423
vt 0.8403 0.7894 0.7894
vt 0.9150 0.7897 0.7897
vt 0.9150 0.7148 0.7148
vt 0.9897 0.7894 0.7894
vt 0.9678 0.8423 0.8423
vt 0.9678 0.7368 0.7368
vt 0.8623 0.7368 0.7368
vt 0.1936 0.3218 0.3218
vt 0.1936 0.3628 0.3628
vt 0.0150 0.3628 0.3628
vt 0.8779 0.6917 0.6917
vt 0.8311 0.6438 0.6438
vt 0.8550 0.6331 0.6331
vt 0.8877 0.6667 0.6667
vt 0.9448 0.6921 0.6921
vt 0.9351 0.6672 0.6672
vt 0.9927 0.6453 0.6453
vt 0.9683 0.6340 0.6340
vt 0.9937 0.5781 0.5781
vt 0.9688 0.5872 0.5872
vt 0.9463 0.5303 0.5303
vt 0.9360 0.5535 0.5535
vt 0.8794 0.5295 0.5295
vt 0.8887 0.5530 0.5530
vt 0.8315 0.5767 0.5767
vt 0.8550 0.5862 0.5862
vt 0.7080 0.9415 0.9415
vt 0.6484 0.9415 0.9415
vt 0.6479 0.5630 0.5630
vt 0.7065 0.5630 0.5630
vt 0.7070 0.4546 0.4546
vt 0.5894 0.9415 0.9415
vt 0.5889 0.5630 0.5630
vt 0.5830 0.4546 0.4546
vt 0.5303 0.9415 0.9415
vt 0.5298 0.5630 0.5630
vt 0.5210 0.4546 0.4546
vt 0.4709 0.9415 0.9415
vt 0.4719 0.5630 0.5630
vt 0.3984 0.4546 0.4546
vt 0.4114 0.9415 0.9415
vt 0.4167 0.5630 0.5630
vt 0.3364 0.4546 0.4546
vt 0.2747 0.4351 0.4351
vt 0.2747 0.0107 0.0107
vt 0.3364 0.0107 0.0107
vt 0.3364 0.4351 0.4351
vt 0.2747 0.4546 0.4546
vt 0.3984 0.4351 0.4351
vt 0.3984 0.0107 0.0107
vt 0.0150 0.3218 0.3218
vt 0.1936 0.2793 0.2793
vt 0.0150 0.0586 0.0586
vt 0.0150 0.0181 0.0181
vt 0.1936 0.0181 0.0181
vt 0.7690 0.4351 0.4351
vt 0.7690 0.0107 0.0107
vt 0.8315 0.0107 0.0107
vt 0.8315 0.4351 0.4351
vt 0.8315 0.4546 0.4546
vt 0.7690 0.4546 0.4546
vt 0.7617 0.5630 0.5630
vt 0.0587 0.4355 0.4355
vt 0.0845 0.4043 0.4043
vt 0.2571 0.5754 0.5754
vt 0.4597 0.4546 0.4546
vt 0.4597 0.4351 0.4351
vt 0.4597 0.0107 0.0107
vt 0.5210 0.4351 0.4351
vt 0.5210 0.0107 0.0107
vt 0.5830 0.4351 0.4351
vt 0.5830 0.0107 0.0107
vt 0.6450 0.4546 0.4546
vt 0.6450 0.4351 0.4351
vt 0.6450 0.0107 0.0107
vt 0.7070 0.4351 0.4351
vt 0.7070 0.0107 0.0107
vt 0.7676 0.9415 0.9415
vt 0.0382 0.4702 0.4702
vt 0.8086 0.5630 0.5630
vt 0.8936 0.4546 0.4546
vt 0.8286 0.9415 0.9415
vt 0.0237 0.5081 0.5081
vt 0.3704 0.5630 0.5630
vt 0.2129 0.4546 0.4546
vt 0.3511 0.9415 0.9415
vt 0.0157 0.5476 0.5476
vt 0.0143 0.5881 0.5881
vt 0.0197 0.6282 0.6282
vt 0.0150 0.2793 0.2793
vt 0.0150 0.2354 0.2354
vt 0.1936 0.2354 0.2354
vt 0.1936 0.1904 0.1904
vt 0.0150 0.1904 0.1904
vt 0.1936 0.1455 0.1455
vt 0.0150 0.1455 0.1455
vt 0.1936 0.1016 0.1016
vt 0.0150 0.1016 0.1016
vt 0.8809 0.8964 0.8964
vt 0.9209 0.8798 0.8798
vt 0.9209 0.9363 0.9363
vt 0.9609 0.8964 0.8964
vt 0.9771 0.9363 0.9363
vt 0.9609 0.9763 0.9763
vt 0.9209 0.9929 0.9929
vt 0.8809 0.9763 0.9763
vt 0.8643 0.9363 0.9363
vt 0.0318 0.6667 0.6667
vt 0.8936 0.4351 0.4351
vt 0.8936 0.0107 0.0107
vt 0.9565 0.4546 0.4546
vt 0.9565 0.4351 0.4351
vt 0.9565 0.0107 0.0107
vt 0.2129 0.4351 0.4351
vt 0.2129 0.0107 0.0107
vt 0.3325 0.8765 0.8765
vt 0.2820 0.9463 0.9463
vt 0.2325 0.9408 0.9408
vt 0.2050 0.9820 0.9820
vt 0.1936 0.0586 0.0586
vt 0.3389 0.7905 0.7905
vt 0.3027 0.8656 0.8656
vt 0.1152 0.3779 0.3779
vt 0.2976 0.7628 0.7628
vt 0.2225 0.6926 0.6926
vt 0.1761 0.8192 0.8192
vt 0.0497 0.7728 0.7728
vt 0.1198 0.6978 0.6978
vt 0.0547 0.8756 0.8756
vt 0.0199 0.7620 0.7620
vt 0.1475 0.6565 0.6565
vt 0.1299 0.9457 0.9457
vt 0.2335 0.6628 0.6628
vt 0.1190 0.9755 0.9755
vt 0.3032 0.7136 0.7136
vt 0.0491 0.9249 0.9249
vt 0.0134 0.8479 0.8479
vt 0.0705 0.6921 0.6921
# 140 texture coords

g Whiskey_Bottle
usemtl Whiskey_Bottle_Mati
s 1
f 1/1/1 2/2/2 3/3/3 
s 2
f 3/3/4 4/4/5 1/1/1 
s 3
f 5/5/6 4/4/5 3/3/3 
s 4
f 6/6/7 7/7/2 1/1/1 
s 5
f 5/5/6 8/8/2 6/6/7 
s 6
f 3/3/3 9/9/2 5/5/6 
s 7
f 7/10/8 6/11/9 10/12/10 
s 8
f 11/13/11 12/14/12 13/15/12 
s 9
f 13/15/12 14/16/11 11/13/11 
s 10
f 15/17/13 11/13/11 14/16/11 
s 11
f 14/16/11 16/18/13 15/17/13 
s 12
f 17/19/14 15/17/13 16/18/13 
s 13
f 16/18/13 18/20/14 17/19/14 
s 14
f 19/21/15 17/19/14 18/20/14 
s 15
f 18/20/14 20/22/15 19/21/15 
s 16
f 21/23/16 19/21/15 20/22/15 
s 17
f 20/22/15 22/24/16 21/23/16 
s 18
f 23/25/17 21/23/16 22/24/16 
s 19
f 22/24/16 24/26/17 23/25/17 
s 20
f 25/27/18 23/25/17 24/26/17 
s 21
f 24/26/17 26/28/18 25/27/18 
s 22
f 12/14/12 25/27/18 26/28/18 
s 23
f 26/28/18 13/15/12 12/14/12 
s 24
f 12/29/19 11/30/20 27/31/21 
s 25
f 27/31/21 28/32/22 12/29/19 
s 26
f 28/32/22 27/31/21 29/33/23 
s 27
f 11/30/20 15/34/24 30/35/25 
s 28
f 30/35/25 27/31/21 11/30/20 
s 29
f 27/31/21 30/35/25 31/36/26 
s 30
f 15/34/24 17/37/27 32/38/28 
s 31
f 32/38/28 30/35/25 15/34/24 
s 32
f 30/35/25 32/38/28 33/39/29 
s 33
f 17/37/27 19/40/30 34/41/31 
s 34
f 34/41/31 32/38/28 17/37/27 
s 35
f 32/38/28 34/41/31 35/42/32 
s 36
f 19/40/30 21/43/33 36/44/34 
s 37
f 36/44/34 34/41/31 19/40/30 
s 38
f 34/41/31 36/44/34 37/45/35 
s 39
f 38/46/36 39/47/37 40/48/38 
s 40
f 40/48/38 41/49/39 38/46/36 
s 41
f 38/46/36 41/49/39 37/45/35 
s 42
f 37/45/35 42/50/40 38/46/36 
s 43
f 42/50/40 37/45/35 36/44/34 
s 44
f 37/45/35 35/42/32 34/41/31 
s 45
f 35/42/32 37/45/35 41/49/39 
s 46
f 41/49/39 43/51/41 35/42/32 
s 47
f 44/52/42 43/51/41 41/49/39 
s 48
f 41/49/39 40/48/38 44/52/42 
s 49
f 10/12/10 45/53/43 7/10/8 
s 50
f 1/54/44 7/10/8 45/53/43 
s 51
f 46/55/45 10/56/10 6/57/9 
s 52
f 47/58/46 48/59/47 49/60/48 
s 53
f 49/60/48 50/61/49 47/58/46 
s 54
f 47/58/46 50/61/49 51/62/50 
s 55
f 51/62/50 52/63/51 47/58/46 
s 56
f 52/63/51 51/62/50 53/64/52 
s 57
f 14/65/53 13/66/54 54/67/55 
s 58
f 35/42/32 55/68/56 32/38/28 
s 59
f 55/68/56 35/42/32 43/51/41 
s 60
f 43/51/41 56/69/57 55/68/56 
s 61
f 57/70/58 56/69/57 43/51/41 
s 62
f 43/51/41 44/52/42 57/70/58 
s 63
f 55/68/56 33/39/29 32/38/28 
s 64
f 33/39/29 55/68/56 56/69/57 
s 65
f 56/69/57 58/71/59 33/39/29 
s 66
f 59/72/60 58/71/59 56/69/57 
s 67
f 56/69/57 57/70/58 59/72/60 
s 68
f 33/39/29 31/36/26 30/35/25 
s 69
f 31/36/26 33/39/29 58/71/59 
s 70
f 58/71/59 60/73/61 31/36/26 
s 71
f 61/74/62 60/73/61 58/71/59 
s 72
f 58/71/59 59/72/60 61/74/62 
s 73
f 31/36/26 62/75/63 27/31/21 
s 74
f 62/75/63 31/36/26 60/73/61 
s 75
f 60/73/61 63/76/64 62/75/63 
s 76
f 64/77/65 63/76/64 60/73/61 
s 77
f 60/73/61 61/74/62 64/77/65 
s 78
f 62/75/63 29/33/23 27/31/21 
s 79
f 29/33/23 62/75/63 63/76/64 
s 80
f 63/76/64 65/78/66 29/33/23 
s 81
f 66/79/67 65/78/66 63/76/64 
s 82
f 63/76/64 64/77/65 66/79/67 
s 83
f 29/33/23 52/63/51 28/32/22 
s 84
f 52/63/51 29/33/23 65/78/66 
s 85
f 65/78/66 47/58/46 52/63/51 
s 86
f 48/59/47 47/58/46 65/78/66 
s 87
f 65/78/66 66/79/67 48/59/47 
s 88
f 53/64/52 28/32/22 52/63/51 
s 89
f 28/32/22 53/64/52 25/80/68 
s 90
f 25/80/68 12/29/19 28/32/22 
s 91
f 16/81/69 14/65/53 54/67/55 
s 92
f 67/82/70 53/64/52 68/83/71 
s 93
f 53/64/52 67/82/70 23/84/72 
s 94
f 23/84/72 25/80/68 53/64/52 
s 95
f 18/85/73 16/81/69 54/67/55 
s 96
f 36/44/34 67/86/70 69/87/74 
s 97
f 67/86/70 36/44/34 21/43/33 
s 98
f 21/43/33 23/88/72 67/86/70 
s 99
f 20/89/75 18/85/73 54/67/55 
s 100
f 22/90/76 20/89/75 54/67/55 
s 101
f 24/91/77 22/90/76 54/67/55 
s 102
f 70/92/78 71/93/79 2/94/80 
s 103
f 3/95/81 2/94/80 71/93/79 
s 104
f 2/94/80 1/54/44 70/92/78 
s 105
f 45/53/43 70/92/78 1/54/44 
s 106
f 71/93/79 72/96/82 3/95/81 
s 107
f 9/97/83 3/95/81 72/96/82 
s 108
f 72/96/82 73/98/84 9/97/83 
s 109
f 5/99/85 9/97/83 73/98/84 
s 110
f 73/98/84 74/100/86 5/99/85 
s 111
f 5/99/85 74/100/86 46/55/45 
s 112
f 1/1/1 4/4/5 6/6/7 
s 113
f 6/6/7 4/4/5 5/5/6 
s 114
f 71/101/87 70/102/87 75/103/87 
s 115
f 75/103/87 70/102/87 45/104/87 
s 116
f 45/104/87 10/105/87 75/103/87 
s 117
f 75/103/87 10/105/87 46/106/87 
s 118
f 46/106/87 74/107/87 75/103/87 
s 119
f 75/103/87 74/107/87 73/108/87 
s 120
f 73/108/87 72/109/87 75/103/87 
s 121
f 75/103/87 72/109/87 71/101/87 
s 122
f 26/110/88 24/91/77 54/67/55 
s 123
f 51/62/50 68/83/71 53/64/52 
s 124
f 68/83/71 51/62/50 50/61/49 
s 125
f 50/61/49 76/111/89 68/83/71 
s 126
f 77/112/90 76/111/89 50/61/49 
s 127
f 50/61/49 49/60/48 77/112/90 
s 128
f 68/83/71 69/113/74 67/82/70 
s 129
f 69/113/74 68/83/71 76/111/89 
s 130
f 76/111/89 78/114/91 69/113/74 
s 131
f 79/115/92 78/114/91 76/111/89 
s 132
f 76/111/89 77/112/90 79/115/92 
s 133
f 69/87/74 42/50/40 36/44/34 
s 134
f 42/50/40 69/87/74 78/116/91 
s 135
f 78/116/91 38/46/36 42/50/40 
s 136
f 39/47/37 38/46/36 78/116/91 
s 137
f 78/116/91 79/117/92 39/47/37 
s 138
f 48/118/93 66/119/94 80/120/95 
s 139
f 66/119/94 64/121/96 80/120/95 
s 140
f 6/57/9 8/122/45 46/55/45 
s 141
f 46/55/45 8/122/45 5/99/85 
s 142
f 49/123/97 48/118/93 81/124/98 
s 143
f 13/66/54 26/125/88 54/67/55 
s 144
f 81/124/98 82/126/99 49/123/97 
s 145
f 83/127/100 82/126/99 84/128/101 
s 146
f 82/126/99 81/124/98 84/128/101 
s 147
f 85/129/102 86/130/103 84/128/101 
s 148
f 80/120/95 81/124/98 48/118/93 
s 149
f 87/131/104 85/129/102 84/128/101 
s 150
f 86/130/103 85/129/102 44/132/105 
s 151
f 86/130/103 83/127/100 84/128/101 
s 152
f 83/127/100 86/130/103 39/133/106 
s 153
f 80/120/95 88/134/107 84/128/101 
s 154
f 88/134/107 80/120/95 64/121/96 
s 155
f 39/133/106 79/135/108 83/127/100 
s 156
f 64/121/96 61/136/109 88/134/107 
s 157
f 88/134/107 87/131/104 84/128/101 
s 158
f 81/124/98 80/120/95 84/128/101 
s 159
f 77/137/110 49/123/97 82/126/99 
s 160
f 61/136/109 59/138/111 87/131/104 
s 161
f 82/126/99 83/127/100 79/135/108 
s 162
f 87/131/104 88/134/107 61/136/109 
s 163
f 79/135/108 77/137/110 82/126/99 
s 164
f 59/138/111 57/139/112 87/131/104 
s 165
f 44/132/105 40/140/113 86/130/103 
s 166
f 40/140/113 39/133/106 86/130/103 
s 167
f 85/129/102 87/131/104 57/139/112 
s 168
f 57/139/112 44/132/105 85/129/102 
# 168 faces

