# Blender v2.79 (sub 0) OBJ File: ''
# www.blender.org
mtllib OBJ_BANANA_01_LOD100.mtl
o OBJ_BANANA_01_LOD100
v 0.347943 0.672079 0.120010
v 0.311928 0.636064 0.120010
v 0.383958 0.636064 0.120010
v 0.347943 0.564034 0.035893
v 0.383958 0.575998 0.000000
v 0.347943 0.672079 -0.120010
v 0.383958 0.636064 -0.120010
v 0.311928 0.636064 -0.120010
v 0.347943 0.564034 -0.035893
v 0.311928 0.587962 0.000000
v 0.275913 0.480039 0.000000
v 0.347943 0.564034 0.035893
v 0.224026 0.143938 0.107923
v 0.367965 0.143938 0.000000
v 0.231962 -0.083995 -0.000000
v 0.224026 0.143939 -0.107923
v 0.000000 -0.215969 -0.000000
v -0.272006 -0.120010 -0.131974
v -0.367965 -0.287999 -0.000000
v -0.720059 -0.215969 -0.000000
v -0.272006 -0.120010 0.131974
v -0.792089 -0.143938 -0.000000
v -0.272006 0.023929 0.000000
v -0.720059 -0.095959 -0.000000
v -0.272006 -0.120010 -0.131974
v -0.792089 -0.143938 -0.000000
v -0.720059 -0.215969 -0.000000
v 0.347943 0.672079 0.120010
v 0.347943 0.672079 -0.120010
v 0.311928 0.636064 -0.120010
v 0.311928 0.636064 0.120010
v 0.311928 0.587962 0.000000
v 0.347943 0.564034 0.035893
v -0.272006 0.023929 0.000000
v -0.272006 -0.120010 0.131974
v 0.079966 0.227933 0.000000
v -0.272006 -0.120010 -0.131974
v 0.224026 0.143939 -0.107923
v -0.272006 -0.120010 0.131974
v -0.367965 -0.287999 -0.000000
v 0.000000 -0.215969 -0.000000
v 0.383958 0.575998 0.000000
v 0.347943 0.564034 0.035893
v 0.367965 0.143938 0.000000
v 0.347943 0.564034 -0.035893
v 0.224026 0.143939 -0.107923
v 0.275913 0.480039 0.000000
v 0.079966 0.227933 0.000000
v 0.224026 0.143938 0.107923
v -0.272006 -0.120010 0.131974
v 0.231962 -0.083995 -0.000000
v 0.000000 -0.215969 -0.000000
v 0.347943 0.672079 -0.120010
v 0.347943 0.672079 0.120010
v 0.383958 0.636064 0.120010
v 0.383958 0.636064 -0.120010
v 0.383958 0.575998 0.000000
v 0.347943 0.564034 -0.035893
v -0.043584 0.035405 -0.105237
v -0.188622 -0.041387 -0.112074
v -0.095959 0.135515 0.000000
v -0.188622 -0.034672 0.107191
v -0.043584 0.042119 0.100476
v -0.095959 0.135515 0.000000
v -0.236967 0.053840 0.000000
v -0.188622 -0.041387 -0.112074
vt 0.824319 1.000000
vt 0.816506 0.964840
vt 0.957148 0.964840
vt 0.894640 0.878892
vt 0.957148 0.886705
vt 0.824319 1.000000
vt 0.957148 0.964840
vt 0.816506 0.964840
vt 0.894640 0.878892
vt 0.808693 0.902332
vt 0.793065 0.832011
vt 0.894640 0.832011
vt 0.753998 0.464778
vt 0.933708 0.433525
vt 0.832133 0.269442
vt 0.753998 0.464778
vt 0.589916 0.089733
vt 0.449274 0.199121
vt 0.324258 0.019412
vt 0.074228 0.003785
vt 0.449274 0.199121
vt 0.144549 0.105360
vt 0.414113 0.261629
vt 0.136735 0.199121
vt 0.449274 0.199121
vt 0.144549 0.105360
vt 0.074228 0.003785
vt 0.824319 1.000000
vt 0.957148 1.000000
vt 0.816506 0.964840
vt 0.816506 0.964840
vt 0.808693 0.902332
vt 0.894640 0.878892
vt 0.414113 0.261629
vt 0.449274 0.199121
vt 0.687584 0.519473
vt 0.449274 0.199121
vt 0.753998 0.464778
vt 0.449274 0.199121
vt 0.324258 0.019412
vt 0.589916 0.089733
vt 0.949335 0.824197
vt 0.894640 0.832011
vt 0.933708 0.433525
vt 0.894640 0.832011
vt 0.753998 0.464778
vt 0.793065 0.832011
vt 0.687584 0.519473
vt 0.753998 0.464778
vt 0.449274 0.199121
vt 0.832133 0.269442
vt 0.589916 0.089733
vt 0.824319 1.000000
vt 0.957148 1.000000
vt 0.957148 0.964840
vt 0.957148 0.964840
vt 0.957148 0.886705
vt 0.894640 0.878892
vt 0.009889 0.762056
vt 0.009889 0.222928
vt 0.503968 0.761690
vt 0.990111 0.222928
vt 0.990111 0.762056
vt 0.503968 0.761690
vt 0.503968 0.222561
vt 0.009889 0.222928
vn -0.0001 0.7071 0.7071
vn -0.6737 -0.3036 0.6737
vn 0.6685 -0.3262 0.6684
vn -0.0381 -0.5973 0.8011
vn 0.7960 -0.6053 -0.0000
vn -0.0001 0.7071 -0.7071
vn 0.6684 -0.3262 -0.6684
vn -0.6738 -0.3035 -0.6737
vn -0.0382 -0.5973 -0.8011
vn -0.9007 -0.4345 0.0000
vn -0.7496 0.6619 0.0000
vn -0.0382 -0.5973 0.8011
vn 0.0153 0.1735 0.9847
vn 0.9219 -0.3875 0.0000
vn 0.7071 -0.7071 0.0000
vn 0.0152 0.1735 -0.9847
vn 0.5593 -0.8290 -0.0000
vn -0.2654 -0.0285 -0.9637
vn 0.0189 -0.9998 0.0000
vn -0.6218 -0.7832 0.0000
vn -0.2654 -0.0285 0.9637
vn -0.7066 0.7076 0.0001
vn -0.6372 0.7707 -0.0000
vn -0.5237 0.8519 0.0000
vn -0.7071 0.7071 0.0000
vn 0.0000 0.7071 0.7071
vn 0.0000 0.7071 -0.7071
vn -0.6738 -0.3035 0.6737
vn -0.6371 0.7707 -0.0000
vn -0.2655 -0.0285 0.9637
vn -0.2654 -0.0284 -0.9637
vn 0.0153 0.1735 -0.9847
vn -0.2654 -0.0284 0.9637
vn -0.0381 -0.5973 -0.8011
vn 0.6684 -0.3262 0.6684
vn -0.3820 0.6535 -0.6535
vn -0.4208 0.6414 -0.6415
vn -0.6823 0.7311 -0.0038
vn -0.4228 0.6408 0.6408
vn -0.3838 0.6530 0.6530
vn -0.6823 0.7310 -0.0038
vn -0.7071 0.7071 -0.0042
vn -0.4209 0.6414 -0.6414
usemtl gxmat74
s 1
f 1/1/1 2/2/2 3/3/3
f 3/3/3 2/2/2 4/4/4
f 3/3/3 4/4/4 5/5/5
f 6/6/6 7/7/7 8/8/8
f 8/8/8 7/7/7 9/9/9
f 8/8/8 9/9/9 10/10/10
f 10/10/10 9/9/9 11/11/11
f 10/10/10 11/11/11 12/12/12
f 12/12/12 11/11/11 13/13/13
f 12/12/12 13/13/13 14/14/14
f 14/14/14 13/13/13 15/15/15
f 14/14/14 15/15/15 16/16/16
f 16/16/16 15/15/15 17/17/17
f 16/16/16 17/17/17 18/18/18
f 18/18/18 17/17/17 19/19/19
f 18/18/18 19/19/19 20/20/20
f 20/20/20 19/19/19 21/21/21
f 20/20/20 21/21/21 22/22/22
f 22/22/22 21/21/21 23/23/23
f 22/22/22 23/23/23 24/24/24
f 24/24/24 23/23/23 25/25/18
f 24/24/24 25/25/18 26/26/25
f 26/26/25 25/25/18 27/27/20
f 28/28/26 29/29/27 30/30/8
f 28/28/26 30/30/8 31/31/28
f 31/31/28 30/30/8 32/32/10
f 31/31/28 32/32/10 33/33/4
f 34/34/29 35/35/30 36/36/25
f 34/34/29 36/36/25 37/37/31
f 37/37/31 36/36/25 38/38/32
f 39/39/33 40/40/19 41/41/17
f 42/42/5 43/43/4 44/44/14
f 42/42/5 44/44/14 45/45/34
f 45/45/34 44/44/14 46/46/32
f 45/45/34 46/46/32 47/47/11
f 47/47/11 46/46/32 48/48/25
f 47/47/11 48/48/25 49/49/13
f 49/49/13 48/48/25 50/50/21
f 49/49/13 50/50/21 51/51/15
f 51/51/15 50/50/21 52/52/17
f 53/53/27 54/54/26 55/55/35
f 53/53/27 55/55/35 56/56/7
f 56/56/7 55/55/35 57/57/5
f 56/56/7 57/57/5 58/58/9
usemtl gxmat75
f 59/59/36 60/60/37 61/61/38
f 62/62/39 63/63/40 64/64/41
f 62/62/39 64/64/41 65/65/42
f 65/65/42 64/64/41 66/66/43
