# Blender v2.79 (sub 0) OBJ File: ''
# www.blender.org
mtllib OBJ_BANANA_01_LOD50.mtl
o OBJ_BANANA_01_LOD50
v -0.272006 -0.120010 0.131974
v 0.000000 -0.215969 -0.000000
v 0.231962 -0.083995 -0.000000
v 0.224026 0.143939 -0.107923
v 0.347943 0.564034 -0.035893
v 0.347943 0.672079 -0.120010
v 0.383958 0.575998 0.000000
v 0.347943 0.672079 0.120010
v 0.347943 0.564034 0.035893
v 0.347943 0.564034 0.035893
v 0.224026 0.143938 0.107923
v 0.367965 0.143938 0.000000
v 0.079966 0.227933 0.000000
v -0.272006 0.023929 0.000000
v -0.272006 -0.120010 0.131974
v 0.224026 0.143938 0.107923
v 0.231962 -0.083995 -0.000000
v 0.367965 0.143938 0.000000
v 0.224026 0.143939 -0.107923
v -0.272006 -0.120010 -0.131974
v -0.367965 -0.287999 -0.000000
v -0.792089 -0.143938 -0.000000
v 0.224026 0.143938 0.107923
v 0.347943 0.564034 0.035893
v 0.311928 0.587962 0.000000
v 0.079966 0.227933 0.000000
v 0.224026 0.143939 -0.107923
v -0.272006 -0.120010 -0.131974
v 0.000000 -0.215969 -0.000000
v -0.367965 -0.287999 -0.000000
v -0.272006 -0.120010 0.131974
v -0.792089 -0.143938 -0.000000
v -0.272006 0.023929 0.000000
v -0.272006 -0.120010 -0.131974
v 0.079966 0.227933 0.000000
v 0.224026 0.143939 -0.107923
v 0.311928 0.587962 0.000000
v 0.347943 0.564034 -0.035893
v 0.367965 0.143938 0.000000
v 0.383958 0.575998 0.000000
v 0.347943 0.564034 0.035893
v 0.347943 0.672079 -0.120010
v 0.347943 0.564034 -0.035893
v 0.311928 0.587962 0.000000
v 0.347943 0.672079 0.120010
v 0.347943 0.564034 0.035893
v -0.043584 0.035405 -0.105237
v -0.188622 -0.041387 -0.112074
v -0.095959 0.135515 0.000000
v -0.188622 -0.034672 0.107191
v -0.043584 0.042119 0.100476
v -0.095959 0.135515 0.000000
v -0.236967 0.053840 0.000000
v -0.188622 -0.041387 -0.112074
vt 0.009889 0.762056
vt 0.009889 0.222928
vt 0.503968 0.761690
vt 0.990111 0.222928
vt 0.990111 0.762056
vt 0.503968 0.761690
vt 0.503968 0.222561
vt 0.009889 0.222928
vt 0.449274 0.199121
vt 0.589916 0.089733
vt 0.832133 0.269442
vt 0.753998 0.464778
vt 0.894640 0.878892
vt 0.957148 0.964840
vt 0.957148 0.886705
vt 0.957148 0.964840
vt 0.894640 0.878892
vt 0.894640 0.832011
vt 0.753998 0.464778
vt 0.933708 0.433525
vt 0.687584 0.519473
vt 0.414113 0.261629
vt 0.449274 0.199121
vt 0.753998 0.464778
vt 0.832133 0.269442
vt 0.933708 0.433525
vt 0.753998 0.464778
vt 0.449274 0.199121
vt 0.324258 0.019412
vt 0.065071 0.010377
vt 0.753998 0.464778
vt 0.894640 0.832011
vt 0.793065 0.832011
vt 0.687584 0.519473
vt 0.753998 0.464778
vt 0.449274 0.199121
vt 0.589916 0.089733
vt 0.324258 0.019412
vt 0.449274 0.199121
vt 0.065071 0.010377
vt 0.414113 0.261629
vt 0.449274 0.199121
vt 0.687584 0.519473
vt 0.753998 0.464778
vt 0.793065 0.832011
vt 0.894640 0.832011
vt 0.933708 0.433525
vt 0.949335 0.824197
vt 0.894640 0.832011
vt 0.816506 0.964840
vt 0.894640 0.878892
vt 0.808693 0.902332
vt 0.816506 0.964840
vt 0.894640 0.878892
vn -0.3820 0.6535 -0.6535
vn -0.4208 0.6414 -0.6415
vn -0.6823 0.7311 -0.0038
vn -0.4228 0.6408 0.6408
vn -0.3838 0.6530 0.6530
vn -0.6823 0.7310 -0.0038
vn -0.7071 0.7071 -0.0042
vn -0.4209 0.6414 -0.6414
vn -0.2614 0.0955 0.9605
vn 0.5593 -0.8290 -0.0000
vn 0.7071 -0.7071 -0.0000
vn 0.0557 0.1462 -0.9877
vn 0.3488 -0.3057 -0.8859
vn -0.0842 -0.1539 -0.9845
vn 0.9577 -0.2876 -0.0000
vn -0.0842 -0.1539 0.9845
vn 0.3488 -0.3057 0.8859
vn 0.3488 -0.3057 0.8860
vn 0.0557 0.1461 0.9877
vn 0.9219 -0.3875 0.0000
vn -0.7071 0.7071 0.0000
vn -0.6332 0.7740 0.0000
vn -0.2614 0.0954 0.9605
vn 0.0557 0.1462 0.9877
vn -0.2614 0.0955 -0.9605
vn -0.0913 -0.9958 -0.0000
vn -0.8657 0.5006 -0.0001
vn -0.9446 0.3283 -0.0000
vn 0.0557 0.1461 -0.9877
vn -0.8657 0.5005 -0.0000
vn 0.3488 -0.3056 -0.8860
vn -0.0841 -0.1540 -0.9845
vn -0.0841 -0.1540 0.9845
usemtl gxmat79
s 1
f 47/1/1 48/2/2 49/3/3
f 50/4/4 51/5/5 52/6/6
f 50/4/4 52/6/6 53/7/7
f 53/7/7 52/6/6 54/8/8
usemtl gxmat78
f 1/9/9 2/10/10 3/11/11
f 3/11/11 2/10/10 4/12/12
f 5/13/13 6/14/14 7/15/15
f 7/15/15 6/14/14 8/16/16
f 7/15/15 8/16/16 9/17/17
f 10/18/18 11/19/19 12/20/20
f 13/21/21 14/22/22 15/23/23
f 13/21/21 15/23/23 16/24/24
f 16/24/24 15/23/23 17/25/11
f 16/24/24 17/25/11 18/26/20
f 18/26/20 17/25/11 19/27/12
f 20/28/25 21/29/26 22/30/27
f 23/31/19 24/32/17 25/33/28
f 23/31/19 25/33/28 26/34/21
f 26/34/21 25/33/28 27/35/29
f 26/34/21 27/35/29 28/36/25
f 28/36/25 27/35/29 29/37/10
f 28/36/25 29/37/10 30/38/26
f 30/38/26 29/37/10 31/39/9
f 30/38/26 31/39/9 32/40/30
f 32/40/30 31/39/9 33/41/22
f 32/40/30 33/41/22 34/42/25
f 34/42/25 33/41/22 35/43/21
f 36/44/12 37/45/28 38/46/31
f 36/44/12 38/46/31 39/47/20
f 39/47/20 38/46/31 40/48/15
f 39/47/20 40/48/15 41/49/18
f 42/50/32 43/51/13 44/52/28
f 42/50/32 44/52/28 45/53/33
f 45/53/33 44/52/28 46/54/17
